<svg width="58" height="14" viewBox="0 0 58 14" fill="none" xmlns="http://www.w3.org/2000/svg">
<path d="M51.5369 3.03936C51.4324 2.93397 51.2911 2.8753 51.1428 2.8753H27.5609C27.2544 2.8753 27.0066 3.12288 27.0066 3.42911V10.8195C27.0066 11.1257 26.7587 11.3733 26.4522 11.3733H21.03C20.7234 11.3733 20.4756 11.1257 20.4756 10.8195V3.42911C20.4756 3.12288 20.2278 2.8753 19.9213 2.8753H3.4058C3.25751 2.8753 3.11618 2.93397 3.01168 3.03936L0.160238 5.91477C0.0577255 6.01817 0 6.15836 0 6.30452V12.9432C0 13.2494 0.247821 13.497 0.554363 13.497H1.57153C1.87807 13.497 2.12589 13.2494 2.12589 12.9432V10.8801C2.12589 10.5739 2.37371 10.3263 2.68025 10.3263H6.87231C7.17886 10.3263 7.42668 10.5739 7.42668 10.8801V12.9432C7.42668 13.2494 7.6745 13.497 7.98104 13.497H8.98327C9.28982 13.497 9.53764 13.2494 9.53764 12.9432V5.55385C9.53764 5.24762 9.78546 5.00004 10.092 5.00004H12.3393C12.6459 5.00004 12.8937 5.24762 12.8937 5.55385V12.9442C12.8937 13.2504 13.1415 13.498 13.448 13.498H14.4652C14.7717 13.498 15.0196 13.2504 15.0196 12.9442V5.55385C15.0196 5.24762 15.2674 5.00004 15.5739 5.00004H17.7914C18.0979 5.00004 18.3457 5.24762 18.3457 5.55385V12.9442C18.3457 13.2504 18.5936 13.498 18.9001 13.498H35.4713C35.7778 13.498 36.0257 13.2504 36.0257 12.9442V11.9281C36.0257 11.6218 35.7778 11.3743 35.4713 11.3743H29.6838C29.3773 11.3743 29.1295 11.1267 29.1295 10.8205V9.81924C29.1295 9.51301 29.3773 9.26543 29.6838 9.26543H34.9398C35.2464 9.26543 35.4942 9.01786 35.4942 8.71163V7.69549C35.4942 7.38926 35.2464 7.14169 34.9398 7.14169H29.6838C29.3773 7.14169 29.1295 6.89412 29.1295 6.58788V5.55584C29.1295 5.2496 29.3773 5.00203 29.6838 5.00203H38.6761C38.9826 5.00203 39.2304 5.2496 39.2304 5.55584V12.9462C39.2304 13.2524 39.4782 13.5 39.7848 13.5H40.8019C41.1085 13.5 41.3563 13.2524 41.3563 12.9462V5.55385C41.3563 5.24762 41.6041 5.00004 41.9107 5.00004H44.4506C44.7571 5.00004 45.005 5.24762 45.005 5.55385V12.9442C45.005 13.2504 45.2528 13.498 45.5593 13.498H46.5615C46.8681 13.498 47.1159 13.2504 47.1159 12.9442V10.8811C47.1159 10.5749 47.3637 10.3273 47.6703 10.3273H51.8623C52.1689 10.3273 52.4167 10.5749 52.4167 10.8811V12.9442C52.4167 13.2504 52.6645 13.498 52.9711 13.498H53.9882C54.2948 13.498 54.5426 13.2504 54.5426 12.9442V6.30452C54.5426 6.15836 54.4849 6.01817 54.3823 5.91477L51.5309 3.03936H51.5369ZM6.87331 8.20157H2.68125C2.37471 8.20157 2.12688 7.954 2.12688 7.64777V7.36639C2.12688 7.22123 2.18461 7.08104 2.28613 6.97763L4.07462 5.16509C4.17912 5.0597 4.32145 5.00004 4.46974 5.00004H6.87331C7.17985 5.00004 7.42767 5.24762 7.42767 5.55385V7.64777C7.42767 7.954 7.17985 8.20157 6.87331 8.20157ZM47.6762 8.20157C47.3697 8.20157 47.1219 7.954 47.1219 7.64777V5.55385C47.1219 5.24762 47.3697 5.00004 47.6762 5.00004H50.0798C50.2281 5.00004 50.3704 5.0597 50.4749 5.16509L52.2644 6.97763C52.3669 7.08104 52.4237 7.22123 52.4237 7.36639V7.64777C52.4237 7.954 52.1758 8.20157 51.8693 8.20157H47.6762Z" fill="white"/>
<path d="M55.8334 0.5C56.133 0.5 56.4206 0.57457 56.6963 0.724703C56.972 0.874837 57.188 1.0896 57.3452 1.36899C57.5025 1.64837 57.5811 1.94168 57.5811 2.24692C57.5811 2.55216 57.5035 2.84049 57.3492 3.1169C57.195 3.39231 56.98 3.60807 56.7033 3.76218C56.4266 3.91629 56.137 3.99384 55.8324 3.99384C55.5279 3.99384 55.2383 3.91629 54.9616 3.76218C54.6859 3.60807 54.4699 3.39331 54.3157 3.1169C54.1614 2.84149 54.0838 2.55116 54.0838 2.24692C54.0838 1.94268 54.1624 1.64937 54.3196 1.36899C54.4769 1.0896 54.6939 0.874837 54.9685 0.724703C55.2442 0.57457 55.5319 0.5 55.8314 0.5H55.8334ZM55.8354 0.842026C55.5946 0.842026 55.3647 0.901682 55.1437 1.02199C54.9228 1.14229 54.7496 1.3143 54.6222 1.539C54.4948 1.76371 54.4321 1.99935 54.4321 2.24593C54.4321 2.4925 54.4938 2.72417 54.6182 2.94589C54.7426 3.16761 54.9148 3.34061 55.1377 3.46589C55.3597 3.59017 55.5926 3.65281 55.8364 3.65281C56.0803 3.65281 56.3141 3.59017 56.5361 3.46589C56.757 3.3416 56.9302 3.16761 57.0556 2.94589C57.18 2.72417 57.2427 2.49051 57.2427 2.24593C57.2427 2.00134 57.179 1.76371 57.0526 1.539C56.9252 1.3143 56.7511 1.1413 56.5301 1.02199C56.3092 0.901682 56.0783 0.842026 55.8374 0.842026H55.8354ZM55.0432 1.32723H55.4194C55.7727 1.32723 55.9698 1.32922 56.0126 1.3322C56.137 1.34313 56.2345 1.36799 56.3032 1.40677C56.3729 1.44554 56.4306 1.5052 56.4764 1.58474C56.5222 1.66428 56.5461 1.75277 56.5461 1.85021C56.5461 1.98443 56.5023 2.09877 56.4147 2.19323C56.3271 2.28868 56.2047 2.34734 56.0464 2.37021C56.1032 2.39109 56.146 2.41495 56.1768 2.43981C56.2077 2.46466 56.2495 2.51239 56.3022 2.58199C56.3161 2.59988 56.3619 2.67545 56.4396 2.80768L56.6585 3.18153H56.1927L56.0375 2.88027C55.933 2.67843 55.8454 2.55116 55.7777 2.49847C55.71 2.44577 55.6224 2.41992 55.5179 2.41992H55.4194V3.18153H55.0432V1.32723ZM55.4194 2.12761H55.5727C55.7906 2.12761 55.925 2.11965 55.9777 2.10275C56.0305 2.08585 56.0713 2.05702 56.1022 2.01526C56.133 1.9735 56.1479 1.92577 56.1479 1.87308C56.1479 1.82038 56.133 1.77564 56.1032 1.73487C56.0733 1.69411 56.0315 1.66528 55.9768 1.64837C55.922 1.63048 55.7877 1.62252 55.5727 1.62252H55.4194V2.1286V2.12761Z" fill="white"/>
</svg>
